# xmcd CD database file
#
# Track frame offsets:
#	150
#	11097
#	24322
#	40382
#	56872
#	72762
#	83680
#	98887
#	107575
#	124875
#	143357
#	162702
#	179687
#	193652
#	218920
#
# Disc length: 4667 seconds
#
# Revision: 2
# Processed by: cddbd v1.5.2PL0 Copyright (c) Steve Scherf et al.
# Submitted via: CDex 1.51
#
DISCID=d412390f
DTITLE=Blues Explosion - Damage
DYEAR=2004
DGENRE=Blues Rock
TTITLE0=Damage
TTITLE1=Burn It Off
TTITLE2=Spoiled
TTITLE3=Crunchy
TTITLE4=Hot Gossip
TTITLE5=Mars, Arizona
TTITLE6=You Been My Baby
TTITLE7=Rivals
TTITLE8=Help These Blues
TTITLE9=Fed Up And Low Down
TTITLE10=Rattling
TTITLE11=Blowing My Mind
TTITLE12=Grinding
TTITLE13=The Funky Gremlin
TTITLE14=Extra Data
EXTD=YEAR: 2004
EXTT0=
EXTT1=
EXTT2=
EXTT3=
EXTT4=
EXTT5=
EXTT6=
EXTT7=
EXTT8=
EXTT9=
EXTT10=
EXTT11=
EXTT12=
EXTT13=
EXTT14=
PLAYORDER=
